<svg viewBox="0 0 64 64" xml:space="preserve" xmlns="http://www.w3.org/2000/svg" enable-background="new 0 0 64 64"><g id="Line"><path d="M56 26.68V7c0-1.66-1.34-3-3-3h0c-1.66 0-3 1.34-3 3v19.68a6.99 6.99 0 0 0-4 6.57c.13 3.65 3.22 6.68 6.88 6.74C56.8 40.06 60 36.91 60 33c0-2.79-1.64-5.19-4-6.32zM50 14h6M48 24h2M47 19h3M48 14h2M47 9h3M20 38 8.54 40.86A6 6 0 0 0 4 46.68V60h44V46.68a6 6 0 0 0-4.54-5.82L32 38M15 16v9c0 6.08 4.92 11 11 11h0c6.08 0 11-4.92 11-11v-9" fill="none" stroke="#6c5ce7" stroke-width="2" stroke-linecap="round" stroke-linejoin="round" stroke-miterlimit="10" class="stroke-000000"></path><path d="M20 34.21V40c0 3.31 2.69 6 6 6s6-2.69 6-6v-5.79M37 18h2c1.1 0 2 .9 2 2v2c0 1.1-.9 2-2 2h-2M15 18h-2c-1.1 0-2 .9-2 2v2c0 1.1.9 2 2 2h2M37 16h0c-3.8 0-7.41-1.69-9.84-4.61L26 10l1.56 4.68a.998.998 0 0 1-.95 1.32h0c-2.75 0-5.2-1.76-6.07-4.38L20 10v1c0 2.76-2.24 5-5 5h0v-6c0-3.31 2.69-6 6-6h10c3.31 0 6 2.69 6 6v6zM30 20l1.5 1 1.5-1M22 20l-1.5 1-1.5-1M24 30h4M40 60v-6M12 60v-6" fill="none" stroke="#6c5ce7" stroke-width="2" stroke-linecap="round" stroke-linejoin="round" stroke-miterlimit="10" class="stroke-000000"></path><circle cx="53" cy="33" r="2.5" fill="none" stroke="#6c5ce7" stroke-width="2" stroke-linecap="round" stroke-linejoin="round" stroke-miterlimit="10" class="stroke-000000"></circle></g></svg>